<mxfile host="app.diagrams.net" modified="2024-02-01T11:23:35.309Z" agent="Mozilla/5.0 (X11; Linux x86_64) AppleWebKit/537.36 (KHTML, like Gecko) Chrome/118.0.5993.789 YaBrowser/23.11.1.789 (corp) Yowser/2.5 Safari/537.36" version="23.1.0" etag="yp8B4ZMgQ8vrFTvpTXd4" type="github">
  <diagram name="Страница — 1" id="PUTRj0eQtD8zUABNSc4V">
    <mxGraphModel>
      <root>
        <mxCell id="0" />
        <mxCell id="1" parent="0" />
      </root>
    </mxGraphModel>
  </diagram>
</mxfile>
